<svg width="18" height="13" viewBox="0 0 18 13" fill="none" xmlns="http://www.w3.org/2000/svg">
<path d="M16.1378 0.501455C14.5068 0.584758 11.2651 0.887971 9.26385 1.99047C9.12575 2.06654 9.04748 2.2018 9.04748 2.34323V12.0897C9.04748 12.3991 9.42338 12.5946 9.74035 12.451C11.7993 11.5184 14.777 11.2639 16.2494 11.1943C16.7521 11.1704 17.1429 10.8077 17.1429 10.373V1.32377C17.1432 0.849399 16.686 0.473598 16.1378 0.501455ZM7.87901 1.99047C5.87808 0.887971 2.63636 0.585026 1.00537 0.501455C0.457151 0.473598 0 0.849399 0 1.32377V10.3733C0 10.8083 0.390781 11.171 0.893468 11.1945C2.36641 11.2642 5.34563 11.5189 7.40459 12.4521C7.72067 12.5954 8.09538 12.4001 8.09538 12.0916V2.33841C8.09538 2.19671 8.0174 2.0668 7.87901 1.99047Z" fill="white"/>
</svg>
