<svg width="24" height="17" viewBox="0 0 24 17" fill="none" xmlns="http://www.w3.org/2000/svg">
<path d="M0.775917 2.61589L10.3699 7.6318C10.6923 7.79987 11.109 7.87898 11.5281 7.87809C11.9472 7.87721 12.3636 7.79632 12.6852 7.62689L22.2579 2.57032C22.882 2.24025 23.4696 0.96025 22.3235 0.962681L0.704785 1.00854C-0.441379 1.01097 0.151665 2.28846 0.775917 2.61589ZM22.5538 5.32345L12.6911 10.3781C12.2571 10.6016 11.953 10.6284 11.5339 10.6293C11.1148 10.6302 10.8107 10.6046 10.3757 10.383C9.94083 10.1615 1.25146 5.72864 0.541534 5.36889C0.0426606 5.11495 0.0484053 5.41369 0.0488932 5.64369L0.0682296 14.7599C0.0693431 15.2849 0.794101 16.0084 1.34866 16.0072L21.7931 15.9638C22.3476 15.9627 23.0693 15.2361 23.0682 14.7111L23.0488 5.59615C23.0484 5.36615 23.0528 5.06739 22.5538 5.32345Z" fill="#0286FF"/>
</svg>
