<svg width="50" height="36" viewBox="0 0 50 36" fill="none" xmlns="http://www.w3.org/2000/svg">
<path d="M12.5129 15.7013C10.0429 15.7065 7.05755 17.9228 6.92231 15.4531C6.65708 12.9837 8.85907 9.20899 14.9594 4.64603L15.9975 3.73383C18.3339 2.03887 15.9873 -1.07615 13.5211 0.749081L12.7425 1.40073C4.30633 7.91864 0.0342602 16.3777 0.0519077 24.6977C0.066522 31.5877 5.53451 35.3461 11.2545 35.334C16.8445 35.3221 21.5148 30.7622 21.5027 25.0422C21.4889 18.5422 16.6728 15.6924 12.5129 15.7013ZM40.2028 15.6425C37.7328 15.6478 34.7475 17.8641 34.4823 15.3946C34.347 12.9249 36.419 9.15053 42.5193 4.58758L43.6874 3.6751C45.8938 1.98041 43.6772 -1.13489 41.2111 0.690348L40.4325 1.342C31.9963 7.85991 27.7242 16.319 27.7418 24.639C27.7565 31.529 33.2244 35.2874 38.8144 35.2755C44.5344 35.2634 49.2048 30.7035 49.1926 24.9835C49.1788 18.4835 44.3628 15.6337 40.2028 15.6425Z" fill="#0286FF"/>
</svg>
