<svg width="26" height="29" viewBox="0 0 26 29" fill="none" xmlns="http://www.w3.org/2000/svg">
<path d="M14.1799 2.58029C13.2084 1.53596 11.8535 0.96259 10.3594 0.965759C8.8573 0.968945 7.50034 1.54458 6.53784 2.58654C5.5649 3.63998 5.09279 5.06988 5.20763 6.61258C5.43522 9.65616 7.75687 12.1275 10.3831 12.122C13.0092 12.1164 15.3164 9.6357 15.5346 6.59167C15.6444 5.06244 15.1632 3.63755 14.1799 2.58029Z" fill="#0286FF"/>
<path d="M13.0969 23.2725L1.64165 23.2968C1.41219 23.3003 1.18484 23.2526 0.976148 23.1571C0.767452 23.0617 0.582658 22.9209 0.43521 22.745C0.110661 22.3587 -0.0209478 21.8306 0.0745393 21.296C0.489943 18.9633 1.79764 17.0017 3.85663 15.6222C5.68584 14.3976 8.00481 13.7208 10.387 13.7158C12.7691 13.7107 15.4298 14.3774 17.2642 15.5937C17.64 15.8431 16.3974 17.2811 17.6173 17.6849C18.405 17.9456 19.2883 18.3048 19.3634 19.0757C19.0184 20.8196 17.9654 22.0735 16.9311 22.9158C16.2958 23.0808 16.1837 22.7183 15.1864 22.2223C14.357 22.2985 13.876 23.2709 13.0969 23.2725Z" fill="#0286FF"/>
<path d="M15.7989 28.0656C16.3544 27.9155 16.9105 27.5467 17.4885 27.1123C18.0666 26.678 18.5876 26.1795 18.9804 25.7952C20.0124 24.7613 20.9708 23.5287 21.6906 22.2216C22.4103 20.9144 22.9133 19.4671 23.043 17.9617C23.1426 17.0804 23.2793 16.1891 23.0391 15.3003C22.919 14.8559 22.5822 14.2713 22.1864 13.7624C21.7955 13.2719 21.2901 12.872 20.7957 12.8069C20.609 12.7779 20.3618 12.7454 20.0875 12.7599C19.8318 12.7694 19.581 12.7974 19.4144 12.8424C19.3218 12.8674 19.2292 12.8924 19.2157 12.916C19.1196 13.0015 19.0621 13.1562 19.0095 13.3293C18.9329 13.7077 18.8924 13.7782 18.7312 14.3583C18.575 14.9568 18.3868 15.5839 18.2712 16.1118C18.2016 16.3691 18.1861 16.5322 18.2011 16.5878C18.2812 16.884 18.7886 17.1443 19.3181 17.339C19.8526 17.5522 20.36 17.8125 20.4301 18.0717C20.4651 18.2013 20.4446 18.346 20.392 18.5191C20.3395 18.6923 20.3054 18.8604 20.2749 18.968C19.7894 20.8477 18.9921 22.2355 17.6313 23.5966C17.4762 23.7578 17.1573 24.1221 16.9537 24.1771C16.7129 24.2422 16.3451 23.9839 15.9588 23.7307C15.5959 23.4909 15.1726 23.2477 14.7652 23.3578C14.7096 23.3728 14.553 23.4549 14.3323 23.594C13.8959 23.8907 13.4004 24.2631 12.9135 24.5933C12.6792 24.756 12.5141 24.8801 12.4265 24.9236C12.381 24.9757 12.3119 25.0142 12.2243 25.0577C12.1367 25.1013 12.0727 25.1583 12.0036 25.1969C11.852 25.2974 11.7474 25.425 11.6983 25.5376C11.6863 25.6402 11.6908 25.8775 11.7323 26.1047C11.7924 26.3269 11.8439 26.5911 11.8739 26.7022C11.8889 26.7578 11.9089 26.8318 11.9475 26.9009L12.0125 27.1416C12.4319 27.6641 13.0654 27.9499 13.7616 28.0996C14.4527 28.2307 15.1879 28.2308 15.7989 28.0656Z" fill="#0286FF"/>
</svg>
