<svg width="314" height="314" viewBox="0 0 314 314" fill="none" xmlns="http://www.w3.org/2000/svg">
<circle cx="2.75551" cy="310.845" r="2.75551" fill="#E4ECFA"/>
<circle cx="41.2672" cy="310.845" r="2.75551" fill="#E4ECFA"/>
<circle cx="79.7789" cy="310.845" r="2.75551" fill="#E4ECFA"/>
<circle cx="118.291" cy="310.845" r="2.75551" fill="#E4ECFA"/>
<circle cx="156.802" cy="310.845" r="2.75551" fill="#E4ECFA"/>
<circle cx="195.314" cy="310.845" r="2.75551" fill="#E4ECFA"/>
<circle cx="233.826" cy="310.845" r="2.75551" fill="#E4ECFA"/>
<circle cx="272.338" cy="310.845" r="2.75551" fill="#E4ECFA"/>
<circle cx="310.849" cy="310.845" r="2.75551" fill="#E4ECFA"/>
<circle cx="2.75551" cy="272.334" r="2.75551" fill="#E4ECFA"/>
<circle cx="41.2672" cy="272.334" r="2.75551" fill="#E4ECFA"/>
<circle cx="79.7789" cy="272.334" r="2.75551" fill="#E4ECFA"/>
<circle cx="118.291" cy="272.334" r="2.75551" fill="#E4ECFA"/>
<circle cx="156.802" cy="272.334" r="2.75551" fill="#E4ECFA"/>
<circle cx="195.314" cy="272.334" r="2.75551" fill="#E4ECFA"/>
<circle cx="233.826" cy="272.334" r="2.75551" fill="#E4ECFA"/>
<circle cx="272.338" cy="272.334" r="2.75551" fill="#E4ECFA"/>
<circle cx="310.849" cy="272.334" r="2.75551" fill="#E4ECFA"/>
<circle cx="2.75551" cy="233.823" r="2.75551" fill="#E4ECFA"/>
<circle cx="41.2672" cy="233.823" r="2.75551" fill="#E4ECFA"/>
<circle cx="79.7789" cy="233.823" r="2.75551" fill="#E4ECFA"/>
<circle cx="118.291" cy="233.823" r="2.75551" fill="#E4ECFA"/>
<circle cx="156.802" cy="233.823" r="2.75551" fill="#E4ECFA"/>
<circle cx="195.314" cy="233.823" r="2.75551" fill="#E4ECFA"/>
<circle cx="233.826" cy="233.823" r="2.75551" fill="#E4ECFA"/>
<circle cx="272.338" cy="233.823" r="2.75551" fill="#E4ECFA"/>
<circle cx="310.849" cy="233.823" r="2.75551" fill="#E4ECFA"/>
<circle cx="2.75551" cy="195.312" r="2.75551" fill="#E4ECFA"/>
<circle cx="41.2672" cy="195.312" r="2.75551" fill="#E4ECFA"/>
<circle cx="79.7789" cy="195.312" r="2.75551" fill="#E4ECFA"/>
<circle cx="118.291" cy="195.312" r="2.75551" fill="#E4ECFA"/>
<circle cx="156.802" cy="195.312" r="2.75551" fill="#E4ECFA"/>
<circle cx="195.314" cy="195.312" r="2.75551" fill="#E4ECFA"/>
<circle cx="233.826" cy="195.312" r="2.75551" fill="#E4ECFA"/>
<circle cx="272.338" cy="195.312" r="2.75551" fill="#E4ECFA"/>
<circle cx="310.849" cy="195.312" r="2.75551" fill="#E4ECFA"/>
<circle cx="2.75551" cy="156.8" r="2.75551" fill="#E4ECFA"/>
<circle cx="41.2672" cy="156.8" r="2.75551" fill="#E4ECFA"/>
<circle cx="79.7789" cy="156.8" r="2.75551" fill="#E4ECFA"/>
<circle cx="118.291" cy="156.8" r="2.75551" fill="#E4ECFA"/>
<circle cx="156.802" cy="156.8" r="2.75551" fill="#E4ECFA"/>
<circle cx="195.314" cy="156.8" r="2.75551" fill="#E4ECFA"/>
<circle cx="233.826" cy="156.8" r="2.75551" fill="#E4ECFA"/>
<circle cx="272.338" cy="156.8" r="2.75551" fill="#E4ECFA"/>
<circle cx="310.849" cy="156.8" r="2.75551" fill="#E4ECFA"/>
<circle cx="2.75551" cy="118.289" r="2.75551" fill="#E4ECFA"/>
<circle cx="41.2672" cy="118.289" r="2.75551" fill="#E4ECFA"/>
<circle cx="79.7789" cy="118.289" r="2.75551" fill="#E4ECFA"/>
<circle cx="118.291" cy="118.289" r="2.75551" fill="#E4ECFA"/>
<circle cx="156.802" cy="118.289" r="2.75551" fill="#E4ECFA"/>
<circle cx="195.314" cy="118.289" r="2.75551" fill="#E4ECFA"/>
<circle cx="233.826" cy="118.289" r="2.75551" fill="#E4ECFA"/>
<circle cx="272.338" cy="118.289" r="2.75551" fill="#E4ECFA"/>
<circle cx="310.849" cy="118.289" r="2.75551" fill="#E4ECFA"/>
<circle cx="2.75551" cy="79.778" r="2.75551" fill="#E4ECFA"/>
<circle cx="41.2672" cy="79.778" r="2.75551" fill="#E4ECFA"/>
<circle cx="79.7789" cy="79.778" r="2.75551" fill="#E4ECFA"/>
<circle cx="118.291" cy="79.778" r="2.75551" fill="#E4ECFA"/>
<circle cx="156.802" cy="79.778" r="2.75551" fill="#E4ECFA"/>
<circle cx="195.314" cy="79.778" r="2.75551" fill="#E4ECFA"/>
<circle cx="233.826" cy="79.778" r="2.75551" fill="#E4ECFA"/>
<circle cx="272.338" cy="79.778" r="2.75551" fill="#E4ECFA"/>
<circle cx="310.849" cy="79.778" r="2.75551" fill="#E4ECFA"/>
<circle cx="2.75551" cy="41.2667" r="2.75551" fill="#E4ECFA"/>
<circle cx="41.2672" cy="41.2667" r="2.75551" fill="#E4ECFA"/>
<circle cx="79.7789" cy="41.2667" r="2.75551" fill="#E4ECFA"/>
<circle cx="118.291" cy="41.2667" r="2.75551" fill="#E4ECFA"/>
<circle cx="156.802" cy="41.2667" r="2.75551" fill="#E4ECFA"/>
<circle cx="195.314" cy="41.2667" r="2.75551" fill="#E4ECFA"/>
<circle cx="233.826" cy="41.2667" r="2.75551" fill="#E4ECFA"/>
<circle cx="272.338" cy="41.2667" r="2.75551" fill="#E4ECFA"/>
<circle cx="310.849" cy="41.2667" r="2.75551" fill="#E4ECFA"/>
<circle cx="2.75551" cy="2.75551" r="2.75551" fill="#E4ECFA"/>
<circle cx="41.2672" cy="2.75551" r="2.75551" fill="#E4ECFA"/>
<circle cx="79.7789" cy="2.75551" r="2.75551" fill="#E4ECFA"/>
<circle cx="118.291" cy="2.75551" r="2.75551" fill="#E4ECFA"/>
<circle cx="156.802" cy="2.75551" r="2.75551" fill="#E4ECFA"/>
<circle cx="195.314" cy="2.75551" r="2.75551" fill="#E4ECFA"/>
<circle cx="233.826" cy="2.75551" r="2.75551" fill="#E4ECFA"/>
<circle cx="272.338" cy="2.75551" r="2.75551" fill="#E4ECFA"/>
<circle cx="310.849" cy="2.75551" r="2.75551" fill="#E4ECFA"/>
</svg>
