<svg width="22" height="22" viewBox="0 0 22 22" fill="none" xmlns="http://www.w3.org/2000/svg">
<path d="M0.206786 5.47886C0.208709 6.38542 0.543227 7.38192 0.968528 8.43867C1.39383 9.49542 1.93988 10.4915 2.36454 11.246C3.51707 13.238 5.00194 15.1991 6.69763 16.8273C8.39332 18.4555 10.3906 19.8111 12.6285 20.6222C13.929 21.1332 15.2296 21.7046 16.6801 21.7015C17.4053 21.7 18.4322 21.4258 19.3681 21.031C20.2738 20.6362 21.0885 20.0301 21.3891 19.3043C21.5094 19.032 21.6597 18.6691 21.7495 18.2458C21.8393 17.8528 21.8989 17.4598 21.8983 17.1879C21.898 17.0368 21.8977 16.8857 21.8674 16.8555C21.7764 16.6744 21.5645 16.5238 21.3225 16.3732C20.7779 16.1024 20.6871 16.0119 19.8702 15.5302C19.023 15.0485 18.1455 14.5064 17.3893 14.1151C17.0262 13.9044 16.7842 13.8142 16.6936 13.8144C16.2101 13.8155 15.6071 14.4816 15.095 15.2079C14.5526 15.9343 13.9496 16.6004 13.5265 16.6013C13.315 16.6017 13.1033 16.5115 12.8612 16.3609C12.6192 16.2103 12.3772 16.09 12.2259 15.9996C9.56345 14.4944 7.77678 12.7153 6.26028 10.0895C6.07833 9.78766 5.65392 9.15397 5.65322 8.82157C5.65239 8.42873 6.19536 7.9743 6.73826 7.48965C7.25101 7.03529 7.79379 6.4902 7.79238 5.8254C7.79219 5.73474 7.73118 5.4629 7.60947 5.07032C7.33584 4.28522 6.97129 3.37943 6.66725 2.50374C6.51526 2.081 6.39375 1.77907 6.36321 1.62805C6.30258 1.53752 6.2721 1.41671 6.24156 1.26568C6.21102 1.11465 6.15033 0.993908 6.11986 0.873098C6.02862 0.601324 5.87708 0.390116 5.72573 0.269563C5.57451 0.209446 5.2117 0.11956 4.84902 0.0901108C4.48639 0.09088 4.06327 0.0615589 3.88196 0.0619435C3.79131 0.0621357 3.67043 0.0623921 3.54962 0.0928669L3.15678 0.0937002C2.19069 0.518809 1.49746 1.3664 0.985863 2.3647C0.504483 3.36293 0.204671 4.48165 0.206786 5.47886Z" fill="#0286FF"/>
</svg>
