<svg width="1440" height="256" viewBox="0 0 1440 256" fill="none" xmlns="http://www.w3.org/2000/svg">
<g clip-path="url(#clip0)">
<g filter="url(#filter0_d)">
<path d="M2367.75 237.119L2368 237.021V0H2.0721e-05L0 237.021C468.667 295.503 440.911 200.23 955.808 200.23C1456.98 200.23 1480 320.5 1922.36 320.5C2157.28 320.5 2282.25 270.993 2367.75 237.119Z" fill="#F4F8FF"/>
<path d="M2367.75 237.119L2368 237.021V0H2.0721e-05L0 237.021C468.667 295.503 440.911 200.23 955.808 200.23C1456.98 200.23 1480 320.5 1922.36 320.5C2157.28 320.5 2282.25 270.993 2367.75 237.119Z" fill="url(#paint0_linear)"/>
<path d="M2367.75 237.119L2368 237.021V0H2.0721e-05L0 237.021C468.667 295.503 440.911 200.23 955.808 200.23C1456.98 200.23 1480 320.5 1922.36 320.5C2157.28 320.5 2282.25 270.993 2367.75 237.119Z" fill="url(#paint1_linear)"/>
</g>
</g>
<defs>
<filter id="filter0_d" x="-64" y="-104" width="2496" height="448.5" filterUnits="userSpaceOnUse" color-interpolation-filters="sRGB">
<feFlood flood-opacity="0" result="BackgroundImageFix"/>
<feColorMatrix in="SourceAlpha" type="matrix" values="0 0 0 0 0 0 0 0 0 0 0 0 0 0 0 0 0 0 127 0"/>
<feOffset dy="-40"/>
<feGaussianBlur stdDeviation="32"/>
<feColorMatrix type="matrix" values="0 0 0 0 0.756042 0 0 0 0 0.834718 0 0 0 0 0.95 0 0 0 0.13 0"/>
<feBlend mode="normal" in2="BackgroundImageFix" result="effect1_dropShadow"/>
<feBlend mode="normal" in="SourceGraphic" in2="effect1_dropShadow" result="shape"/>
</filter>
<linearGradient id="paint0_linear" x1="1456.98" y1="232.305" x2="1456.98" y2="29.5" gradientUnits="userSpaceOnUse">
<stop stop-color="#E8F1FF"/>
<stop offset="1" stop-color="white"/>
</linearGradient>
<linearGradient id="paint1_linear" x1="1184" y1="320.5" x2="1184" y2="29.5" gradientUnits="userSpaceOnUse">
<stop stop-color="white"/>
<stop offset="0.0001" stop-color="white" stop-opacity="0.9"/>
<stop offset="1" stop-color="white" stop-opacity="0.8"/>
</linearGradient>
<clipPath id="clip0">
<rect width="1440" height="256" fill="white"/>
</clipPath>
</defs>
</svg>
